<svg xmlns="http://www.w3.org/2000/svg" width="149" height="43" viewBox="0 0 149 43">
    <g fill="none" fill-rule="evenodd">
        <g fill="#FFF" fill-rule="nonzero">
            <g>
                <path d="M143.01 61.996c-1.116 0-2.064-.391-2.842-1.168-.779-.778-1.168-1.717-1.168-2.817s.39-2.04 1.168-2.818c.778-.795 1.726-1.193 2.843-1.193h24.978c1.1 0 2.048.398 2.843 1.193.779.778 1.168 1.718 1.168 2.818s-.39 2.039-1.168 2.817c-.795.777-1.743 1.168-2.843 1.168h-8.504v25.993c0 1.115-.389 2.065-1.167 2.843-.779.779-1.718 1.168-2.818 1.168s-2.048-.39-2.843-1.168c-.779-.778-1.168-1.728-1.168-2.843V61.996h-8.478zm64.214 1.78c-1.167-1.184-2.58-1.776-4.237-1.776H192v12h10.987c1.657 0 3.07-.586 4.237-1.75 1.184-1.184 1.776-2.597 1.776-4.237 0-1.658-.592-3.07-1.776-4.237zm-14.227 18.223v5.99c0 1.115-.39 2.065-1.168 2.843-.779.779-1.718 1.168-2.818 1.168-1.117 0-2.065-.39-2.843-1.168-.779-.778-1.168-1.728-1.168-2.843V58.011c0-1.1.39-2.04 1.168-2.818.778-.795 1.726-1.193 2.843-1.193h14.978c3.859 0 7.159 1.37 9.9 4.112 2.742 2.742 4.111 6.042 4.111 9.9 0 2.437-.599 4.713-1.8 6.828-1.151 2.048-2.725 3.706-4.722 4.976l5.356 5.356c.779.778 1.166 1.717 1.166 2.817 0 1.115-.387 2.065-1.166 2.843-.795.779-1.743 1.168-2.843 1.168-1.1 0-2.04-.39-2.818-1.168L202.34 82h-9.342zm38.171 8.833c-.78-.778-1.168-1.728-1.168-2.843V58.011c0-1.1.387-2.04 1.168-2.818.777-.795 1.725-1.193 2.845-1.193 1.098 0 2.038.398 2.819 1.193.776.778 1.168 1.718 1.168 2.818v29.978c0 1.115-.392 2.065-1.168 2.843-.781.779-1.72 1.168-2.82 1.168-1.119 0-2.067-.39-2.844-1.168zm30.055-10.057c2.148 2.152 4.736 3.225 7.764 3.225 3.028 0 5.625-1.073 7.79-3.225 2.149-2.15 3.223-4.742 3.223-7.774 0-3.034-1.074-5.623-3.223-7.774-2.165-2.151-4.762-3.227-7.79-3.227-3.028 0-5.616 1.076-7.764 3.227C259.074 67.377 258 69.967 258 73c0 3.032 1.074 5.623 3.223 7.774zm19.822 14.93c-.176-.169-.559-.473-.762-.61-.643-.473-1.37-.896-2.183-1.268-2.606-1.218-5.644-1.828-9.113-1.828-5.229 0-9.705-1.853-13.428-5.559-3.706-3.723-5.559-8.199-5.559-13.428 0-5.246 1.853-9.724 5.56-13.428 3.722-3.723 8.198-5.584 13.427-5.584 5.246 0 9.722 1.861 13.428 5.584 3.723 3.704 5.585 8.182 5.585 13.428 0 2.674-.542 5.221-1.625 7.639-1.049 2.337-2.513 4.393-4.391 6.168 1.303.645 2.47 1.373 3.503 2.185.355.27 1.18 1.02 1.27 1.117.025.028.1.102.1.102l.077.076c.744.812 1.091 1.768 1.04 2.866-.033 1.102-.456 2.022-1.269 2.769-.778.71-1.683 1.066-2.716 1.066-1.167 0-2.098-.482-2.944-1.295z" transform="translate(-138 -54) translate(-1)"/>
            </g>
        </g>
    </g>
</svg>
